<svg width="640" height="650" viewBox="0 0 640 650" fill="none" xmlns="http://www.w3.org/2000/svg">
<rect width="640" height="650" fill="#1F4F22"/>
<path d="M16.306 183.737L18.688 140.181L21.07 183.737L35.3619 318.149H3.03503L16.306 183.737ZM41.4869 377.018H47.9523L21.7506 136.778H15.2852L-9.55542 377.018H-2.74977L2.35446 323.934H36.0424L41.4869 377.018Z" fill="#B2D530"/>
<path d="M74.5289 377.018V128.612H68.4038V377.018H74.5289Z" fill="#B2D530"/>
<path d="M109.421 377.018V128.612H103.296V377.018H109.421Z" fill="#B2D530"/>
<path d="M204.331 371.233H202.629C186.976 371.233 184.594 367.49 184.594 342.99V188.842H204.671V183.397H184.594V153.112H180.171C180.171 161.959 179.83 170.466 179.49 174.89C178.469 183.397 178.129 183.737 173.025 184.078L165.198 184.418V188.842H178.129V342.99C178.129 372.254 181.872 377.018 201.949 377.018H204.331V371.233Z" fill="#B2D530"/>
<path d="M228.387 377.018V227.634C228.387 199.731 233.151 189.522 252.207 189.522H253.568V183.397H252.207C236.894 183.397 230.429 189.863 227.706 203.134L226.686 183.397H221.922V377.018H228.387Z" fill="#B2D530"/>
<path d="M312.325 377.018H317.089V183.397H310.624V334.142C310.624 361.025 305.179 372.934 292.248 372.934C280.679 372.934 274.894 365.448 274.894 342.649V183.397H268.429V343.33C268.429 368.511 275.575 378.719 292.248 378.719C301.776 378.719 308.242 372.254 311.304 359.323L312.325 377.018Z" fill="#B2D530"/>
<path d="M372.146 371.233H370.444C354.791 371.233 352.409 367.49 352.409 342.99V188.842H372.486V183.397H352.409V153.112H347.986C347.986 161.959 347.645 170.466 347.305 174.89C346.284 183.397 345.944 183.737 340.84 184.078L333.013 184.418V188.842H345.944V342.99C345.944 372.254 349.687 377.018 369.764 377.018H372.146V371.233Z" fill="#B2D530"/>
<path d="M395.537 226.273C395.537 202.793 399.961 187.481 415.954 187.481C427.864 187.481 433.309 194.967 433.309 217.425V377.018H439.774V217.085C439.774 191.904 432.969 181.696 415.954 181.696C406.086 181.696 399.281 187.481 395.537 199.05V128.612H389.072V377.018H395.537V226.273Z" fill="#B2D530"/>
<path d="M479.09 261.662C483.514 261.662 485.215 258.94 485.215 252.474C485.215 246.009 483.514 243.287 479.43 243.287C475.347 243.287 472.965 246.009 472.965 252.474C472.965 258.94 475.007 261.662 479.09 261.662ZM475.687 402.539C481.132 395.393 485.555 386.205 485.555 373.275C485.555 362.726 483.514 359.663 478.75 359.663C474.666 359.663 472.965 363.066 472.965 369.872C472.965 376.678 475.347 378.719 477.729 378.719C479.09 378.719 480.111 377.018 480.792 374.296C480.792 385.525 476.708 393.351 472.284 399.477L475.687 402.539Z" fill="#B2D530"/>
<path d="M6.09757 481.3L3.71559 419.029L13.2435 466.668L55.7788 647.018H61.5636V406.778H55.0982V579.302L57.4802 635.108L47.612 588.83L5.07672 406.778H-0.367795V647.018H6.09757V481.3Z" fill="#B2D530"/>
<path d="M113.175 648.719C128.488 648.719 139.377 638.171 139.377 618.774V481.641C139.377 462.244 128.488 451.696 113.175 451.696C98.2024 451.696 87.3134 461.564 87.3134 481.641V618.774C87.3134 639.191 97.8622 648.719 113.175 648.719ZM113.175 642.934C99.9039 642.934 93.7788 632.386 93.7788 618.774V481.3C93.7788 467.349 100.244 457.481 113.175 457.481C126.446 457.481 132.911 468.029 132.911 481.3V618.774C132.911 632.726 126.786 642.934 113.175 642.934Z" fill="#B2D530"/>
<path d="M231.208 648.719C246.52 648.719 256.729 639.532 256.729 609.927V490.148C256.729 464.967 249.243 451.696 231.888 451.696C220.659 451.696 213.173 458.161 210.11 471.432V398.612H203.985V647.018H209.089L209.77 629.663C212.832 642.254 219.978 648.719 231.208 648.719ZM231.208 642.934C215.895 642.934 210.11 628.302 210.11 606.865V492.189C210.11 473.474 216.235 457.481 231.548 457.481C244.479 457.481 250.263 468.71 250.263 490.148V607.545C250.263 634.427 243.118 642.934 231.208 642.934Z" fill="#B2D530"/>
<path d="M326.614 647.018H331.378V453.397H324.913V604.142C324.913 631.025 319.468 642.934 306.538 642.934C294.968 642.934 289.183 635.448 289.183 612.649V453.397H282.718V613.33C282.718 638.511 289.864 648.719 306.538 648.719C316.066 648.719 322.531 642.254 325.593 629.323L326.614 647.018Z" fill="#B2D530"/>
<path d="M365.63 647.018V398.612H359.505V647.018H365.63Z" fill="#B2D530"/>
<path d="M400.522 647.018V398.612H394.397V647.018H400.522Z" fill="#B2D530"/>
<path d="M449.73 648.719C465.043 648.719 474.23 639.532 474.23 621.837V578.621C474.23 558.544 463.682 551.739 452.452 544.933C442.244 538.127 432.716 532.683 432.716 516.349V478.918C432.716 466.328 436.799 457.481 449.73 457.481C462.321 457.481 466.744 467.349 467.085 479.259V521.113H473.55V479.599C473.21 461.564 465.043 451.696 449.73 451.696C435.098 451.696 426.251 460.883 426.251 479.259V516.349C426.251 535.746 436.799 542.551 447.348 549.016C458.918 556.162 468.105 561.947 468.105 578.621V621.837C468.105 634.087 463.001 642.934 449.73 642.934C437.48 642.934 432.376 633.066 432.035 620.816V573.177H425.57V620.816C425.91 640.212 435.098 648.719 449.73 648.719Z" fill="#B2D530"/>
<path d="M505.531 496.273C505.531 472.793 509.955 457.481 525.948 457.481C537.858 457.481 543.302 464.967 543.302 487.425V647.018H549.768V487.085C549.768 461.904 542.962 451.696 525.948 451.696C516.08 451.696 509.274 457.481 505.531 469.05V398.612H499.066V647.018H505.531V496.273Z" fill="#B2D530"/>
<path d="M579.896 433.32C583.299 433.32 585.341 430.598 585.341 424.813C585.341 419.029 583.639 416.306 580.236 416.306C576.834 416.306 574.792 419.029 574.792 424.813C574.792 430.598 576.493 433.32 579.896 433.32ZM582.959 647.018V452.717H576.834V647.018H582.959Z" fill="#B2D530"/>
<path d="M639.653 641.233H637.951C622.298 641.233 619.917 637.49 619.917 612.99V458.842H639.993V453.397H619.917V423.112H615.493C615.493 431.959 615.153 440.466 614.812 444.89C613.791 453.397 613.451 453.737 608.347 454.078L600.52 454.418V458.842H613.451V612.99C613.451 642.254 617.194 647.018 637.271 647.018H639.653V641.233Z" fill="#B2D530"/>
</svg>
