<svg width="1408" height="295" viewBox="0 0 1408 295" fill="none" xmlns="http://www.w3.org/2000/svg">
<rect width="1408" height="295" fill="#53A626"/>
<mask id="mask0" mask-type="alpha" maskUnits="userSpaceOnUse" x="0" y="0" width="1408" height="295">
<rect width="1408" height="295" fill="#53A626"/>
</mask>
<g mask="url(#mask0)">
<path d="M3.1228 129H41.3281C69.2346 129 89.6661 112.223 89.6661 77.8382V62.2238C89.6661 27.5068 67.7396 10.8958 40.4976 10.8958H3.1228V129ZM39.8331 24.1846C59.7663 24.1846 74.2179 37.3073 74.2179 63.2205V76.6754C74.2179 102.589 60.4308 115.379 40.6637 115.379H18.4049V24.1846H39.8331Z" fill="#B2D530"/>
<path d="M119.441 22.3574C126.418 22.3574 129.906 19.2013 129.906 11.3942C129.906 3.42089 126.418 0.430908 119.441 0.430908C112.299 0.430908 108.644 3.42089 108.644 11.3942C108.644 19.5336 111.634 22.3574 119.441 22.3574ZM126.916 129V34.1512H111.302V129H126.916Z" fill="#B2D530"/>
<path d="M185.92 131.326C212 131.326 223.96 118.369 223.96 101.26V100.761C223.96 80.9943 206.186 77.1737 189.907 74.1838C175.954 71.6921 162.831 69.8649 162.831 59.2339V58.9016C162.831 50.9284 167.98 44.2839 183.096 44.2839C197.382 44.2839 205.355 49.9317 206.518 60.7288V62.0577H221.966V60.5627C219.973 42.9551 207.349 31.6596 183.263 31.6596C159.177 31.6596 147.715 44.2839 147.715 59.5661V60.0644C147.715 79.6654 165.489 83.4859 181.768 86.3098C195.887 88.8014 208.844 90.6286 208.844 101.758V102.09C208.844 111.226 202.531 118.203 186.253 118.203C171.801 118.203 162.001 112.057 160.506 99.1003V97.4391H144.061V99.2664C146.22 120.196 160.506 131.326 185.92 131.326Z" fill="#B2D530"/>
<path d="M282.552 131.326C306.638 131.326 323.083 119.532 325.243 93.7847V91.7914H309.462V93.6186C307.137 109.897 298.333 117.538 282.718 117.538C264.779 117.538 254.48 105.745 254.48 85.6453V78.1704C254.48 56.7422 265.941 44.9484 283.051 44.9484C297.668 44.9484 307.137 52.4233 309.296 68.8682V70.5293H325.243V68.8682C322.751 43.4534 306.638 31.6596 282.884 31.6596C257.304 31.6596 238.699 48.2706 238.699 78.0043V85.9776C238.699 114.715 254.646 131.326 282.552 131.326Z" fill="#B2D530"/>
<path d="M353.358 22.3574C360.335 22.3574 363.823 19.2013 363.823 11.3942C363.823 3.42089 360.335 0.430908 353.358 0.430908C346.215 0.430908 342.561 3.42089 342.561 11.3942C342.561 19.5336 345.551 22.3574 353.358 22.3574ZM360.833 129V34.1512H345.219V129H360.833Z" fill="#B2D530"/>
<path d="M427.648 117.705C409.874 117.705 399.409 104.416 399.409 84.6487V78.3365C399.409 58.7355 410.539 44.9484 428.312 44.9484C445.09 44.9484 456.385 57.0744 456.385 78.6687V85.4792C456.385 105.911 445.92 117.705 427.648 117.705ZM431.967 130.993C455.887 130.993 471.833 114.881 471.833 85.6453V78.6687C471.833 48.4367 456.385 31.6596 432.465 31.6596C415.522 31.6596 404.393 41.1279 399.409 54.7489L397.582 34.1512H385.124V161.89H399.908V110.23C405.057 122.854 415.688 130.993 431.967 130.993Z" fill="#B2D530"/>
<path d="M507.145 129V2.59034H491.863V129H507.145Z" fill="#B2D530"/>
<path d="M539.907 22.3574C546.884 22.3574 550.372 19.2013 550.372 11.3942C550.372 3.42089 546.884 0.430908 539.907 0.430908C532.765 0.430908 529.11 3.42089 529.11 11.3942C529.11 19.5336 532.1 22.3574 539.907 22.3574ZM547.382 129V34.1512H531.768V129H547.382Z" fill="#B2D530"/>
<path d="M586.951 77.0076C586.951 57.7389 596.42 45.1145 613.861 45.1145C630.971 45.1145 637.615 56.0778 637.615 72.8549V129H652.897V69.6988C652.897 46.6095 641.269 31.6596 618.346 31.6596C601.569 31.6596 590.606 40.7956 585.955 54.7489L584.46 34.1512H571.669V129H586.951V77.0076Z" fill="#B2D530"/>
<path d="M716.826 44.2839C734.434 44.2839 743.736 55.7455 744.234 74.3499H687.258C688.255 55.4133 699.052 44.2839 716.826 44.2839ZM758.188 100.761V99.9308H741.909V100.927C739.085 112.223 730.281 118.203 716.826 118.203C697.557 118.203 687.259 106.741 687.092 86.642H759.35V76.6754C759.35 52.2572 745.729 31.6596 716.66 31.6596C689.252 31.6596 672.143 49.9317 672.143 78.3365V86.1437C672.143 113.884 686.926 131.326 716.162 131.326C739.417 131.326 753.869 119.864 758.188 100.761Z" fill="#B2D530"/>
<path d="M819.154 117.538C802.875 117.538 791.58 105.911 791.58 84.4826V78.0043C791.58 57.4066 801.712 44.7823 820.15 44.7823C837.758 44.7823 848.223 58.4033 848.223 78.0043V84.3165C848.223 103.917 837.26 117.538 819.154 117.538ZM850.05 129H862.508V2.59034H847.725V52.0911C842.575 39.6329 831.944 31.8257 815.832 31.8257C791.912 31.8257 775.799 48.2706 775.799 77.6721V84.6487C775.799 114.715 791.58 130.993 815.001 130.993C832.276 130.993 843.406 121.359 848.223 107.738L850.05 129Z" fill="#B2D530"/>
<path d="M898.65 130.661C906.125 130.661 909.946 127.505 909.946 119.2C909.946 110.894 906.125 107.738 898.816 107.738C891.175 107.738 887.355 110.728 887.355 119.2C887.355 127.837 890.511 130.661 898.65 130.661Z" fill="#B2D530"/>
<path d="M17.7405 207.467L17.076 200.324L21.3949 209.958L76.3773 297H90.3306V178.896H75.7129V266.768L76.3773 274.741L71.5601 264.276L17.7405 178.896H3.1228V297H17.7405V207.467Z" fill="#B2D530"/>
<path d="M155.22 299.326C181.964 299.326 199.405 282.715 199.405 253.978V246.004C199.405 216.769 181.299 199.66 155.22 199.66C129.473 199.66 111.035 216.271 111.035 246.004V253.978C111.035 282.715 127.147 299.326 155.22 299.326ZM155.22 285.538C136.948 285.538 126.649 273.745 126.649 253.645V246.17C126.649 224.742 138.277 212.948 155.22 212.948C172.495 212.948 183.791 225.407 183.791 246.17V253.645C183.791 273.745 173.492 285.538 155.22 285.538Z" fill="#B2D530"/>
<path d="M265.536 282.715H259.224C243.112 282.715 239.291 279.392 239.291 259.958V215.772H265.536V202.151H239.291V178.231H226.667C226.667 180.723 226.334 188.53 226.168 191.354C225.504 200.822 224.341 202.317 216.7 202.483C214.208 202.65 209.89 202.65 207.896 202.65V215.772H225.172V261.951C225.172 289.027 231.816 297 255.736 297H265.536V282.715Z" fill="#B2D530"/>
<path d="M373.599 192.351C392.369 192.351 401.339 201.819 401.339 216.437V220.257C401.339 236.204 391.705 245.008 374.263 245.008H348.35V192.351H373.599ZM374.429 258.296C403 258.463 416.621 243.513 416.621 220.257V216.437C416.621 193.68 402.834 178.896 373.599 178.896H333.234V297H348.35V258.296H374.429Z" fill="#B2D530"/>
<path d="M474.949 299.326C501.693 299.326 519.134 282.715 519.134 253.978V246.004C519.134 216.769 501.028 199.66 474.949 199.66C449.202 199.66 430.764 216.271 430.764 246.004V253.978C430.764 282.715 446.877 299.326 474.949 299.326ZM474.949 285.538C456.677 285.538 446.378 273.745 446.378 253.645V246.17C446.378 224.742 458.006 212.948 474.949 212.948C492.225 212.948 503.52 225.407 503.52 246.17V253.645C503.52 273.745 493.221 285.538 474.949 285.538Z" fill="#B2D530"/>
<path d="M554.512 297V170.59H539.23V297H554.512Z" fill="#B2D530"/>
<path d="M587.275 190.357C594.251 190.357 597.74 187.201 597.74 179.394C597.74 171.421 594.251 168.431 587.275 168.431C580.132 168.431 576.477 171.421 576.477 179.394C576.477 187.534 579.467 190.357 587.275 190.357ZM594.75 297V202.151H579.135V297H594.75Z" fill="#B2D530"/>
<path d="M658.409 299.326C682.495 299.326 698.939 287.532 701.099 261.785V259.791H685.318V261.619C682.993 277.897 674.189 285.538 658.575 285.538C640.635 285.538 630.336 273.745 630.336 253.645V246.17C630.336 224.742 641.798 212.948 658.907 212.948C673.525 212.948 682.993 220.423 685.152 236.868V238.529H701.099V236.868C698.607 211.453 682.495 199.66 658.741 199.66C633.16 199.66 614.556 216.271 614.556 246.004V253.978C614.556 282.715 630.502 299.326 658.409 299.326Z" fill="#B2D530"/>
<path d="M761.598 212.284C779.206 212.284 788.508 223.746 789.006 242.35H732.03C733.027 223.413 743.824 212.284 761.598 212.284ZM802.959 268.761V267.931H786.681V268.927C783.857 280.223 775.053 286.203 761.598 286.203C742.329 286.203 732.03 274.741 731.864 254.642H804.122V244.675C804.122 220.257 790.501 199.66 761.432 199.66C734.024 199.66 716.914 217.932 716.914 246.337V254.144C716.914 281.884 731.698 299.326 760.933 299.326C784.189 299.326 798.64 287.864 802.959 268.761Z" fill="#B2D530"/>
<path d="M863.926 285.538C847.647 285.538 836.351 273.911 836.351 252.483V246.004C836.351 225.407 846.484 212.782 864.922 212.782C882.53 212.782 892.995 226.403 892.995 246.004V252.316C892.995 271.917 882.032 285.538 863.926 285.538ZM894.822 297H907.28V170.59H892.497V220.091C887.347 207.633 876.716 199.826 860.603 199.826C836.684 199.826 820.571 216.271 820.571 245.672V252.649C820.571 282.715 836.351 298.993 859.773 298.993C877.048 298.993 888.178 289.359 892.995 275.738L894.822 297Z" fill="#B2D530"/>
<path d="M943.422 298.661C950.897 298.661 954.718 295.505 954.718 287.2C954.718 278.894 950.897 275.738 943.588 275.738C935.947 275.738 932.127 278.728 932.127 287.2C932.127 295.837 935.283 298.661 943.422 298.661Z" fill="#B2D530"/>
</g>
</svg>
