<svg width="98" height="46" viewBox="0 0 98 46" fill="none" xmlns="http://www.w3.org/2000/svg">
<path fill-rule="evenodd" clip-rule="evenodd" d="M51.8981 34.0077C51.0977 33.6249 50.5118 33.0586 50.1388 32.307L51.4846 31.4013C51.7186 31.9919 52.1258 32.4347 52.7054 32.73C53.2849 33.0249 53.968 33.1727 54.7549 33.1727C55.5685 33.1727 56.1895 33.0315 56.6178 32.7497C57.0453 32.4684 57.259 32.1131 57.259 31.6831C57.259 31.295 57.0592 30.9828 56.6592 30.7479C56.2583 30.5126 55.5546 30.308 54.5475 30.1339C53.554 29.9601 52.7679 29.7482 52.1883 29.4993C51.6084 29.2517 51.1872 28.9362 50.9253 28.5539C50.663 28.1719 50.5325 27.6987 50.5325 27.1357C50.5325 26.5853 50.6976 26.0822 51.0288 25.6259C51.3604 25.17 51.8365 24.8044 52.457 24.5293C53.078 24.2541 53.7952 24.1161 54.6096 24.1161C55.7134 24.1161 56.6 24.3141 57.2696 24.7096C57.9387 25.1059 58.4185 25.7134 58.7079 26.5315L57.3004 27.3361C57.0799 26.6925 56.7449 26.23 56.2967 25.9475C55.8481 25.6657 55.2859 25.5257 54.6096 25.5257C53.9333 25.5257 53.361 25.6731 52.8921 25.9676C52.4224 26.2637 52.1883 26.6054 52.1883 26.9944C52.1883 27.4371 52.3915 27.7788 52.7987 28.0203C53.2055 28.2618 53.9333 28.4705 54.9826 28.6442C56.4171 28.873 57.4318 29.2147 58.0253 29.671C58.6179 30.1269 58.9149 30.7709 58.9149 31.603C58.9149 32.1796 58.7391 32.693 58.3873 33.1424C58.0354 33.5921 57.5315 33.9445 56.8763 34.1987C56.2207 34.4538 55.4587 34.5811 54.5889 34.5811C53.5958 34.5811 52.6986 34.3905 51.8981 34.0077" fill="#DBF1C1"/>
<path fill-rule="evenodd" clip-rule="evenodd" d="M66.2524 32.5686C66.8797 32.1665 67.1939 31.6428 67.1939 30.9988V29.6102L64.8757 30.0328C63.9515 30.1943 63.2613 30.4251 62.8059 30.7278C62.351 31.0292 62.1233 31.4149 62.1233 31.8843C62.1233 32.3008 62.2885 32.6191 62.6196 32.8405C62.9512 33.0619 63.4129 33.1728 64.0068 33.1728C64.8757 33.1728 65.6243 32.9711 66.2524 32.5686M70.4647 33.1124L70.3612 34.3798C69.9747 34.5137 69.5603 34.5811 69.1189 34.5811C68.5811 34.5811 68.1566 34.4673 67.8457 34.2394C67.5357 34.011 67.3388 33.6291 67.256 33.0923C66.9384 33.5617 66.4725 33.9276 65.8587 34.1889C65.2449 34.4505 64.5999 34.5811 63.9236 34.5811C62.9022 34.5811 62.0608 34.3503 61.3984 33.8874C60.7361 33.4245 60.4049 32.7571 60.4049 31.8843C60.4049 31.12 60.75 30.4588 61.4398 29.9022C62.1296 29.3453 63.1299 28.9596 64.4411 28.7453L67.1939 28.3025V27.7386C67.1939 27.0679 66.9802 26.5315 66.5523 26.1286C66.1244 25.7261 65.5309 25.5257 64.7722 25.5257C64.082 25.5257 63.4856 25.6858 62.9821 26.0083C62.4777 26.3303 62.0886 26.8067 61.8124 27.4371L60.5916 26.5713C60.867 25.8206 61.3811 25.223 62.1334 24.7802C62.8853 24.3375 63.7648 24.1161 64.7722 24.1161C66.0002 24.1161 66.987 24.4048 67.7321 24.9815C68.4777 25.5585 68.8498 26.4103 68.8498 27.5373V32.4885C68.8498 32.73 68.9119 32.9111 69.0361 33.0315C69.1603 33.1526 69.3601 33.2126 69.6368 33.2126C69.9122 33.2126 70.188 33.1797 70.4647 33.1124" fill="#DBF1C1"/>
<path fill-rule="evenodd" clip-rule="evenodd" d="M73.6103 31.6831C73.6103 32.1932 73.6893 32.5456 73.8481 32.7402C74.0065 32.9345 74.3001 33.0314 74.728 33.0314C75.0178 33.0314 75.2696 33.0113 75.4837 32.9715C75.697 32.9312 75.9492 32.8573 76.239 32.7501L75.9699 34.2997C75.5146 34.4874 75.0039 34.5815 74.4382 34.5815C73.5964 34.5815 72.9716 34.3601 72.5649 33.9169C72.1581 33.4742 71.9545 32.7973 71.9545 31.8843V19.689H73.6103V31.6831Z" fill="#DBF1C1"/>
<path fill-rule="evenodd" clip-rule="evenodd" d="M82.6452 32.5686C83.2725 32.1665 83.5868 31.6428 83.5868 30.9988V29.6102L81.2686 30.0328C80.3443 30.1943 79.6541 30.4251 79.1988 30.7278C78.7438 31.0292 78.5161 31.4149 78.5161 31.8843C78.5161 32.3008 78.6813 32.6191 79.0125 32.8405C79.3441 33.0619 79.8058 33.1728 80.3997 33.1728C81.2686 33.1728 82.0171 32.9711 82.6452 32.5686M86.8575 33.1124L86.7541 34.3798C86.3675 34.5137 85.9532 34.5811 85.5117 34.5811C84.974 34.5811 84.5495 34.4673 84.2386 34.2394C83.9285 34.011 83.7317 33.6291 83.6489 33.0923C83.3312 33.5617 82.8653 33.9276 82.2515 34.1889C81.6378 34.4505 80.9928 34.5811 80.3165 34.5811C79.2951 34.5811 78.4536 34.3503 77.7913 33.8874C77.1289 33.4245 76.7978 32.7571 76.7978 31.8843C76.7978 31.12 77.1429 30.4588 77.8327 29.9022C78.5225 29.3453 79.5228 28.9596 80.8339 28.7453L83.5868 28.3025V27.7386C83.5868 27.0679 83.3731 26.5315 82.9451 26.1286C82.5172 25.7261 81.9238 25.5257 81.1651 25.5257C80.4749 25.5257 79.8784 25.6858 79.3749 26.0083C78.8705 26.3303 78.4815 26.8067 78.2052 27.4371L76.9845 26.5713C77.2599 25.8206 77.774 25.223 78.5263 24.7802C79.2782 24.3375 80.1576 24.1161 81.1651 24.1161C82.3931 24.1161 83.3798 24.4048 84.1249 24.9815C84.8705 25.5585 85.2427 26.4103 85.2427 27.5373V32.4885C85.2427 32.73 85.3048 32.9111 85.4289 33.0315C85.5531 33.1526 85.7529 33.2126 86.0296 33.2126C86.305 33.2126 86.5809 33.1797 86.8575 33.1124" fill="#DBF1C1"/>
<path fill-rule="evenodd" clip-rule="evenodd" d="M95.0846 32.1668C95.6709 31.4952 95.9641 30.597 95.9641 29.47V29.2285C95.9641 28.1015 95.6709 27.202 95.0846 26.5313C94.4979 25.8606 93.708 25.5255 92.7149 25.5255C91.7074 25.5255 90.9137 25.8705 90.3346 26.5621C89.755 27.2526 89.4648 28.1816 89.4648 29.3488C89.4648 30.5157 89.755 31.4455 90.3346 32.1364C90.9137 32.8276 91.7074 33.1726 92.7149 33.1726C93.708 33.1726 94.4979 32.8375 95.0846 32.1668V32.1668ZM97.6204 19.6888V34.3801H96.1711L96.0676 32.6296C95.7639 33.2198 95.2984 33.6926 94.6707 34.0478C94.0425 34.4031 93.3286 34.5813 92.5282 34.5813C91.0797 34.5813 89.9307 34.1152 89.0821 33.1833C88.2335 32.2501 87.809 30.9724 87.809 29.3488C87.809 27.7257 88.2335 26.448 89.0821 25.5152C89.9307 24.5829 91.0797 24.1159 92.5282 24.1159C93.2868 24.1159 93.9669 24.2773 94.5672 24.5989C95.1674 24.9213 95.6333 25.3505 95.9641 25.8873V19.6888H97.6204Z" fill="#DBF1C1"/>
<path fill-rule="evenodd" clip-rule="evenodd" d="M30.389 17.2503L40.5188 11.5003L30.389 5.74988V17.2503Z" fill="#DBEABF"/>
<path fill-rule="evenodd" clip-rule="evenodd" d="M10.1296 28.7498L20.2594 34.5002L10.1296 40.2498V28.7498Z" fill="#0C2132"/>
<path fill-rule="evenodd" clip-rule="evenodd" d="M20.2594 23.0001L10.1296 28.7501L20.2594 34.5001V23.0001Z" fill="#1F4F22"/>
<path fill-rule="evenodd" clip-rule="evenodd" d="M10.1296 40.2501L20.2594 45.9997V34.5001L10.1296 40.2501Z" fill="#1F4F22"/>
<path fill-rule="evenodd" clip-rule="evenodd" d="M0 34.4998V34.5002L10.1294 40.2498V28.7498L0 34.4998Z" fill="#1F4F22"/>
<path fill-rule="evenodd" clip-rule="evenodd" d="M30.389 28.7502L40.5188 34.5003V23.0002L30.389 28.7502Z" fill="#B1D135"/>
<path fill-rule="evenodd" clip-rule="evenodd" d="M20.2594 11.5001L30.3892 17.2501L20.2594 23.0001V11.5001Z" fill="#B1D135"/>
<path fill-rule="evenodd" clip-rule="evenodd" d="M0 22.9998V23.0002L10.1294 28.7502V17.2502L0 22.9998Z" fill="#B1D135"/>
<path fill-rule="evenodd" clip-rule="evenodd" d="M20.2595 46L30.3888 40.2504L20.2595 34.5V46Z" fill="#0C2132"/>
<path fill-rule="evenodd" clip-rule="evenodd" d="M30.389 40.2501L40.5188 34.5001L30.389 28.7501V40.2501Z" fill="#1F4F22"/>
<path fill-rule="evenodd" clip-rule="evenodd" d="M20.2595 0.00012207L10.1297 5.74971L20.2595 11.5001V0.00012207Z" fill="#DBEABF"/>
<path fill-rule="evenodd" clip-rule="evenodd" d="M30.3892 17.2501L20.2594 23.0001L30.3892 28.7501V17.2501Z" fill="#DBEABF"/>
<path fill-rule="evenodd" clip-rule="evenodd" d="M30.3892 28.7498L20.2594 34.5002L30.3892 40.2498V28.7498Z" fill="#B1D135"/>
</svg>
