<svg width="124" height="26" viewBox="0 0 124 26" fill="none" xmlns="http://www.w3.org/2000/svg">
<path d="M37.2385 20.1042C36.1075 20.1042 35.0759 19.8732 34.1437 19.4111C33.2114 18.9341 32.4931 18.2783 31.9888 17.4436L33.5476 16.348C33.8839 17.0486 34.3806 17.5926 35.0377 17.9802C35.6949 18.3528 36.4743 18.5391 37.376 18.5391C38.1707 18.5391 38.7973 18.3901 39.2558 18.092C39.7296 17.7789 39.9665 17.3765 39.9665 16.8846C39.9665 16.1393 39.4698 15.6623 38.4764 15.4536L35.7255 14.8947C34.6404 14.6711 33.8456 14.3059 33.3413 13.7991C32.8523 13.2774 32.6077 12.6216 32.6077 11.8315C32.6077 11.2204 32.7911 10.6614 33.1579 10.1546C33.5247 9.64785 34.0443 9.24539 34.7168 8.94728C35.3892 8.63425 36.161 8.47774 37.0321 8.47774C38.1478 8.47774 39.0953 8.69388 39.8748 9.12615C40.6695 9.55841 41.2579 10.1696 41.64 10.9596L40.104 11.9433C39.8595 11.3173 39.4545 10.8478 38.889 10.5347C38.3236 10.2068 37.7046 10.0429 37.0321 10.0429C36.2221 10.0429 35.5803 10.2068 35.1065 10.5347C34.648 10.8478 34.4188 11.2577 34.4188 11.7645C34.4188 12.5545 34.9613 13.0538 36.0464 13.2625L38.912 13.8438C39.9359 14.0525 40.6695 14.3879 41.1127 14.85C41.5712 15.312 41.8004 15.9008 41.8004 16.6163C41.8004 17.6746 41.3801 18.5242 40.5396 19.1652C39.699 19.7912 38.5987 20.1042 37.2385 20.1042Z" fill="white"/>
<path d="M53.6832 18.5168C53.9735 18.5168 54.2563 18.4795 54.5314 18.405L54.4397 19.8136C54.134 19.9626 53.7367 20.0372 53.2476 20.0372C52.6669 20.0372 52.1702 19.903 51.7575 19.6347C51.3602 19.3515 51.108 18.9416 51.001 18.405C50.6189 18.9565 50.0917 19.3813 49.4192 19.6794C48.7468 19.9626 48.0514 20.1042 47.3331 20.1042C46.248 20.1042 45.3463 19.8434 44.628 19.3217C43.9097 18.7851 43.5506 18.0323 43.5506 17.0635C43.5506 16.2287 43.8333 15.5431 44.3988 15.0065C44.9642 14.4699 45.7666 14.0972 46.8058 13.8885L50.9781 13.0836V12.6588C50.9781 11.8241 50.7488 11.1831 50.2904 10.736C49.8319 10.2739 49.1823 10.0429 48.3418 10.0429C46.6759 10.0429 45.5985 10.7509 45.1094 12.1669L43.6193 11.2726C43.9403 10.408 44.5134 9.72983 45.3387 9.23794C46.164 8.73114 47.1803 8.47774 48.3876 8.47774C49.702 8.47774 50.7641 8.80567 51.5741 9.46153C52.3994 10.1025 52.812 11.049 52.812 12.3011V17.7119C52.812 18.2485 53.1024 18.5168 53.6832 18.5168ZM47.5853 18.5391C48.5328 18.5391 49.3352 18.3007 49.9923 17.8237C50.6495 17.3467 50.9781 16.6536 50.9781 15.7443V14.5593L47.654 15.2301C46.8746 15.394 46.3091 15.6102 45.9576 15.8785C45.6061 16.1319 45.4304 16.4971 45.4304 16.974C45.4304 17.4361 45.6214 17.8162 46.0035 18.1143C46.3856 18.3975 46.9128 18.5391 47.5853 18.5391Z" fill="white"/>
<path d="M58.094 17.0411C58.094 17.5926 58.1933 17.9802 58.392 18.2038C58.606 18.4274 58.9575 18.5391 59.4465 18.5391C59.7522 18.5391 60.0043 18.5242 60.203 18.4944C60.4017 18.4497 60.6692 18.3603 61.0054 18.2261L60.7074 19.7912C60.203 19.9999 59.6376 20.1042 59.011 20.1042C58.0787 20.1042 57.3833 19.8583 56.9248 19.3664C56.4816 18.8745 56.26 18.1218 56.26 17.1082V3.55884H58.094V17.0411Z" fill="white"/>
<path d="M71.8409 18.5168C72.1313 18.5168 72.4141 18.4795 72.6891 18.405L72.5974 19.8136C72.2918 19.9626 71.8944 20.0372 71.4054 20.0372C70.8246 20.0372 70.3279 19.903 69.9153 19.6347C69.5179 19.3515 69.2658 18.9416 69.1588 18.405C68.7767 18.9565 68.2494 19.3813 67.577 19.6794C66.9045 19.9626 66.2092 20.1042 65.4909 20.1042C64.4058 20.1042 63.5041 19.8434 62.7858 19.3217C62.0675 18.7851 61.7083 18.0323 61.7083 17.0635C61.7083 16.2287 61.9911 15.5431 62.5565 15.0065C63.122 14.4699 63.9244 14.0972 64.9636 13.8885L69.1359 13.0836V12.6588C69.1359 11.8241 68.9066 11.1831 68.4481 10.736C67.9896 10.2739 67.3401 10.0429 66.4995 10.0429C64.8337 10.0429 63.7563 10.7509 63.2672 12.1669L61.7771 11.2726C62.0981 10.408 62.6712 9.72983 63.4964 9.23794C64.3217 8.73114 65.338 8.47774 66.5454 8.47774C67.8597 8.47774 68.9219 8.80567 69.7319 9.46153C70.5572 10.1025 70.9698 11.049 70.9698 12.3011V17.7119C70.9698 18.2485 71.2602 18.5168 71.8409 18.5168ZM65.743 18.5391C66.6906 18.5391 67.4929 18.3007 68.1501 17.8237C68.8073 17.3467 69.1359 16.6536 69.1359 15.7443V14.5593L65.8118 15.2301C65.0324 15.394 64.4669 15.6102 64.1154 15.8785C63.7639 16.1319 63.5881 16.4971 63.5881 16.974C63.5881 17.4361 63.7792 17.8162 64.1613 18.1143C64.5433 18.3975 65.0706 18.5391 65.743 18.5391Z" fill="white"/>
<path d="M84.6192 3.55884V19.8807H83.0145L82.8998 17.7789C82.5942 18.5093 82.0822 19.0832 81.3639 19.5006C80.6456 19.903 79.8509 20.1042 78.9798 20.1042C78.0169 20.1042 77.1382 19.8732 76.3434 19.4111C75.5487 18.9341 74.9145 18.2559 74.4407 17.3765C73.9822 16.4971 73.753 15.4686 73.753 14.291C73.753 13.0985 73.9975 12.0626 74.4866 11.1831C74.9909 10.3037 75.6481 9.63294 76.4581 9.17086C77.2833 8.70878 78.185 8.47774 79.1632 8.47774C79.9731 8.47774 80.6991 8.66407 81.341 9.03671C81.9829 9.39445 82.4643 9.88634 82.7852 10.5124V3.55884H84.6192ZM79.1632 18.5391C80.2635 18.5391 81.1423 18.1441 81.7995 17.3541C82.4566 16.5492 82.7852 15.476 82.7852 14.1345C82.7852 12.8824 82.4566 11.8912 81.7995 11.1608C81.1576 10.4155 80.3094 10.0429 79.2548 10.0429C78.1086 10.0429 77.2069 10.4304 76.5498 11.2055C75.9079 11.9657 75.5869 12.9942 75.5869 14.291C75.5869 15.5878 75.9002 16.6238 76.5268 17.3989C77.1687 18.159 78.0475 18.5391 79.1632 18.5391Z" fill="white"/>
<path d="M94.2693 8.47774C95.2015 8.47774 96.0345 8.70878 96.7681 9.17086C97.5016 9.63294 98.0747 10.3037 98.4874 11.1831C98.9153 12.0477 99.1293 13.0762 99.1293 14.2686C99.1293 15.4611 98.9153 16.4971 98.4874 17.3765C98.0595 18.2559 97.4711 18.9341 96.7222 19.4111C95.9886 19.8732 95.1481 20.1042 94.2005 20.1042C93.3752 20.1042 92.6569 19.9105 92.0456 19.5229C91.4343 19.1354 90.9605 18.6137 90.6243 17.9578V24.576H87.4836V8.70133H90.3034L90.4409 10.8925C90.7618 10.1472 91.2585 9.55841 91.931 9.12615C92.6034 8.69388 93.3829 8.47774 94.2693 8.47774ZM93.2835 17.7566C94.1241 17.7566 94.7813 17.4585 95.255 16.8622C95.7441 16.266 95.9886 15.4089 95.9886 14.291C95.9886 13.1731 95.7517 12.316 95.278 11.7198C94.8195 11.1235 94.1699 10.8254 93.3294 10.8254C92.5041 10.8254 91.8469 11.131 91.3579 11.7421C90.8688 12.3532 90.6243 13.2029 90.6243 14.291C90.6243 15.3642 90.8612 16.2138 91.335 16.8399C91.824 17.451 92.4735 17.7566 93.2835 17.7566Z" fill="white"/>
<path d="M111.349 18.0025C111.608 18.0025 111.853 17.9653 112.082 17.8907L111.899 19.7912C111.501 19.985 111.005 20.0819 110.409 20.0819C109.736 20.067 109.155 19.9254 108.666 19.6571C108.193 19.3888 107.872 19.0012 107.704 18.4944C107.352 19.0012 106.84 19.3962 106.168 19.6794C105.495 19.9626 104.792 20.1042 104.059 20.1042C102.866 20.1042 101.934 19.8434 101.262 19.3217C100.605 18.8 100.276 18.0547 100.276 17.0858C100.276 16.266 100.543 15.5953 101.078 15.0736C101.629 14.5369 102.423 14.1643 103.463 13.9556L107.406 13.1731V12.7483C107.406 12.1222 107.214 11.6303 106.832 11.2726C106.466 10.8999 105.977 10.7136 105.365 10.7136C104.112 10.7136 103.302 11.3247 102.935 12.547L100.253 11.7421C100.528 10.7285 101.109 9.93106 101.995 9.34973C102.882 8.76841 104.051 8.47774 105.503 8.47774C107.046 8.47774 108.269 8.83548 109.171 9.55096C110.072 10.2515 110.523 11.2726 110.523 12.6141V17.1529C110.523 17.7193 110.798 18.0025 111.349 18.0025ZM104.861 17.9355C105.594 17.9355 106.198 17.764 106.672 17.4212C107.161 17.0784 107.406 16.5269 107.406 15.7667V15.0736L104.998 15.5431C104.433 15.6474 104.028 15.789 103.783 15.9679C103.539 16.1468 103.417 16.4225 103.417 16.7952C103.417 17.1529 103.554 17.4361 103.829 17.6448C104.104 17.8386 104.448 17.9355 104.861 17.9355Z" fill="white"/>
<path d="M118.546 20.5738C117.981 22.0793 117.331 23.1376 116.598 23.7487C115.864 24.3748 114.886 24.6878 113.663 24.6878C112.502 24.6878 111.524 24.4344 110.729 23.9276L111.394 21.7141C111.913 22.1314 112.586 22.3401 113.411 22.3401C113.869 22.3401 114.244 22.2432 114.534 22.0495C114.84 21.8557 115.1 21.5054 115.314 20.9986L115.703 20.0372L114.443 17.1305L110.935 8.70133H114.42L116.598 15.4089L117.194 17.6448L117.904 15.2748L119.99 8.70133H123.177L118.546 20.5738Z" fill="white"/>
<path d="M11.7116 25.6894C11.7161 25.6894 11.7161 25.6894 11.7116 25.6894C11.7383 25.7027 11.765 25.7072 11.7916 25.7116C11.8005 25.7116 11.8094 25.7205 11.8227 25.7205C11.8405 25.7205 11.8582 25.7116 11.876 25.7072C11.8938 25.7027 11.916 25.7027 11.9293 25.6939L22.5376 19.5057C22.6043 19.4657 22.6487 19.3946 22.6487 19.3147C22.6487 19.2347 22.6087 19.1636 22.5376 19.1236L11.9338 12.931C11.8982 12.9132 11.8627 12.8999 11.8227 12.8999C11.7827 12.8999 11.7472 12.9088 11.7116 12.931C11.645 12.971 11.6006 13.0421 11.6006 13.122V13.5085V16.0895V16.6004V19.1814V19.6922V22.2733V22.7841V25.1075V25.494C11.605 25.5784 11.645 25.6494 11.7116 25.6894ZM12.0448 13.5085L14.0394 14.6724L12.0448 15.8363V13.5085ZM12.0448 16.3427L14.4748 14.9256L16.6871 16.2183L12.0404 18.9282V16.3427H12.0448ZM12.0448 19.439L17.1269 16.476L19.3392 17.7687L12.0404 22.0245V19.439H12.0448ZM19.7789 18.0175L21.9912 19.3102L17.0247 22.2066L12.0448 25.1119V22.5309L19.7789 18.0175Z" fill="white" stroke="white" stroke-width="0.27972"/>
<path d="M11.9392 0.560341C11.9348 0.560341 11.9348 0.560341 11.9392 0.560341C11.9126 0.547014 11.8859 0.54257 11.8593 0.538128C11.8504 0.538128 11.8415 0.529245 11.8282 0.529245C11.8104 0.529245 11.7926 0.538129 11.7749 0.542571C11.7571 0.547014 11.7349 0.547013 11.7216 0.555898L1.11324 6.74408C1.0466 6.78407 1.00218 6.85514 1.00218 6.93511C1.00218 7.01507 1.04216 7.08615 1.11324 7.12613L11.7171 13.3188C11.7527 13.3365 11.7882 13.3499 11.8282 13.3499C11.8682 13.3499 11.9037 13.341 11.9392 13.3188C12.0059 13.2788 12.0503 13.2077 12.0503 13.1277V12.7413V10.1602V9.64938V7.06838V6.55751L12.0503 3.9765V3.46564V1.14229V0.755802C12.0459 0.671397 12.0059 0.600323 11.9392 0.560341ZM11.6061 12.7413L9.61144 11.5774L11.6061 10.4135V12.7413ZM11.6061 9.90704L9.17609 11.3241L6.96381 10.0314L11.6105 7.32159V9.90704H11.6061ZM11.6061 6.81072L6.52401 9.77376L4.31173 8.48104L11.6105 4.22528L11.6105 6.81072H11.6061ZM3.87193 8.23227L1.65965 6.93955L6.62619 4.04314L11.6061 1.13784V3.71885L3.87193 8.23227Z" fill="white" stroke="white" stroke-width="0.27972"/>
<path d="M11.9342 12.9266C11.912 12.9132 11.8853 12.9132 11.8631 12.9088C11.8498 12.9043 11.8364 12.8999 11.8231 12.8999C11.8009 12.8999 11.7831 12.9088 11.7654 12.9177C11.7476 12.9221 11.7298 12.9221 11.7165 12.931L11.6277 12.9799L9.42425 14.2637L8.98001 14.5214L6.77661 15.8052L6.33237 16.0629L4.12897 17.3467L3.68474 17.6043L1.48133 18.8971L1.10373 19.1192C1.07708 19.137 1.05487 19.1592 1.0371 19.1858C1.01045 19.2214 0.992676 19.2658 0.992676 19.3102C0.992676 19.3591 1.01045 19.3991 1.0371 19.4346C1.05487 19.4612 1.07264 19.4835 1.10373 19.5012L1.48133 19.7233L3.68474 21.0072L4.12897 21.2648L6.33237 22.5487L6.77661 22.8063L8.98001 24.0902L9.42425 24.3478L11.6277 25.6317L11.7165 25.6805C11.752 25.6983 11.7876 25.7116 11.8276 25.7116C11.8675 25.7116 11.9031 25.7027 11.9386 25.6805L12.0719 25.605V25.0941V22.7974V22.5131V22.2866V22.0023V19.7056V19.4213V19.1947V18.9104V16.6137V16.3294V16.0984V15.8141V13.5174V13.0065L11.9342 12.9266ZM9.60638 23.948L11.601 22.7841V25.1075L9.60638 23.948ZM3.68474 18.1241V20.4963L1.65459 19.3102L3.68474 18.1241ZM4.12453 18.1685L6.07916 19.3058L4.12453 20.4474V18.1685ZM9.4198 21.256L11.3833 22.4021L9.4198 23.5482V21.256ZM9.4198 15.0678L11.3833 16.2139L9.4198 17.36V15.0678ZM11.601 18.9237L9.60638 17.7598L11.601 16.5959V18.9237ZM11.601 22.0156L9.60638 20.8517L11.601 19.6878V22.0156ZM9.4198 18.1596L11.3833 19.3058L9.4198 20.4519V18.1596ZM8.97557 20.4874L6.9543 19.3102L8.97557 18.133V20.4874ZM11.601 15.8274L9.60638 14.6635L11.601 13.4996V15.8274ZM6.77217 18.9015V16.6181L8.73124 17.7598L6.77217 18.9015ZM6.77217 19.71L8.73124 20.8517L6.77217 21.9934V19.71ZM8.97557 15.0322V17.3911L6.9543 16.2139L8.97557 15.0322ZM6.33237 16.5782V18.9415L4.30667 17.7598L6.33237 16.5782ZM4.30667 20.8561L6.33237 19.6745V22.0378L4.30667 20.8561ZM8.97557 21.2249V23.5837L6.9543 22.4065L8.97557 21.2249Z" fill="white" stroke="white" stroke-width="0.27972"/>
<path d="M22.4302 6.69542C22.4702 6.69542 22.5057 6.7043 22.5413 6.72651C22.6079 6.76649 22.6523 6.83757 22.6523 6.91753V19.2939C22.6523 19.3738 22.6079 19.4449 22.5413 19.4849C22.4702 19.5249 22.3902 19.5249 22.3192 19.4849L11.7109 13.2967C11.6442 13.2567 11.5998 13.1857 11.5998 13.1057C11.5998 13.0257 11.6398 12.9547 11.7109 12.9147L22.3192 6.72651C22.3503 6.7043 22.3902 6.69542 22.4302 6.69542ZM22.2081 18.9074V7.29957L12.2573 13.1013L22.2081 18.9074Z" fill="white" stroke="white" stroke-width="0.27972"/>
</svg>
