<svg width="92" height="22" viewBox="0 0 92 22" fill="none" xmlns="http://www.w3.org/2000/svg">
<path d="M5.2497 16.5454C4.11876 16.5454 3.08716 16.3144 2.1549 15.8523C1.22264 15.3753 0.504338 14.7195 0 13.8847L1.55886 12.7892C1.89509 13.4897 2.39178 14.0338 3.04895 14.4213C3.70612 14.794 4.48555 14.9803 5.38724 14.9803C6.18196 14.9803 6.80856 14.8312 7.26705 14.5331C7.74082 14.2201 7.97771 13.8177 7.97771 13.3258C7.97771 12.5805 7.48101 12.1035 6.48762 11.8948L3.73668 11.3358C2.65159 11.1123 1.85688 10.7471 1.35254 10.2403C0.863487 9.71857 0.61896 9.06271 0.61896 8.27271C0.61896 7.66157 0.802355 7.1026 1.16915 6.59581C1.53594 6.08901 2.05556 5.68655 2.72801 5.38844C3.40046 5.07542 4.17225 4.91891 5.04338 4.91891C6.15903 4.91891 7.10658 5.13504 7.88601 5.56731C8.68072 5.99958 9.26912 6.61071 9.65119 7.40072L8.11525 8.3845C7.87073 7.75846 7.46573 7.28893 6.90026 6.9759C6.33479 6.64798 5.71583 6.48401 5.04338 6.48401C4.23338 6.48401 3.5915 6.64798 3.11772 6.9759C2.65923 7.28893 2.42999 7.69883 2.42999 8.20563C2.42999 8.99564 2.97254 9.49498 4.05763 9.70366L6.92318 10.285C7.94714 10.4937 8.68072 10.829 9.12393 11.2911C9.58242 11.7532 9.81166 12.342 9.81166 13.0575C9.81166 14.1158 9.39138 14.9654 8.55082 15.6064C7.71025 16.2324 6.60988 16.5454 5.2497 16.5454Z" fill="#B2D530"/>
<path d="M21.6944 14.9579C21.9848 14.9579 22.2675 14.9207 22.5426 14.8462L22.4509 16.2548C22.1452 16.4038 21.7479 16.4783 21.2588 16.4783C20.6781 16.4783 20.1814 16.3442 19.7688 16.0759C19.3714 15.7927 19.1192 15.3828 19.0122 14.8462C18.6302 15.3977 18.1029 15.8225 17.4305 16.1206C16.758 16.4038 16.0626 16.5454 15.3443 16.5454C14.2592 16.5454 13.3575 16.2846 12.6392 15.7629C11.9209 15.2263 11.5618 14.4735 11.5618 13.5046C11.5618 12.6699 11.8445 11.9842 12.41 11.4476C12.9755 10.911 13.7778 10.5384 14.8171 10.3297L18.9893 9.52479V9.09998C18.9893 8.26525 18.7601 7.62431 18.3016 7.17713C17.8431 6.71505 17.1936 6.48401 16.353 6.48401C14.6872 6.48401 13.6097 7.19204 13.1207 8.60809L11.6306 7.71374C11.9515 6.8492 12.5246 6.17099 13.3499 5.6791C14.1752 5.1723 15.1915 4.91891 16.3989 4.91891C17.7132 4.91891 18.7754 5.24683 19.5854 5.90269C20.4106 6.54364 20.8233 7.49015 20.8233 8.74224V14.153C20.8233 14.6896 21.1136 14.9579 21.6944 14.9579ZM15.5965 14.9803C16.544 14.9803 17.3464 14.7418 18.0036 14.2648C18.6607 13.7878 18.9893 13.0947 18.9893 12.1855V11.0005L15.6653 11.6712C14.8858 11.8352 14.3204 12.0513 13.9689 12.3196C13.6174 12.573 13.4416 12.9382 13.4416 13.4152C13.4416 13.8773 13.6326 14.2574 14.0147 14.5555C14.3968 14.8387 14.924 14.9803 15.5965 14.9803Z" fill="#B2D530"/>
<path d="M26.1052 13.4823C26.1052 14.0338 26.2045 14.4213 26.4032 14.6449C26.6172 14.8685 26.9687 14.9803 27.4578 14.9803C27.7634 14.9803 28.0156 14.9654 28.2143 14.9356C28.4129 14.8909 28.6804 14.8014 29.0166 14.6673L28.7186 16.2324C28.2143 16.4411 27.6488 16.5454 27.0222 16.5454C26.0899 16.5454 25.3945 16.2995 24.9361 15.8076C24.4929 15.3157 24.2713 14.5629 24.2713 13.5494V0H26.1052V13.4823Z" fill="#B2D530"/>
<path d="M39.8522 14.9579C40.1425 14.9579 40.4253 14.9207 40.7004 14.8462L40.6087 16.2548C40.303 16.4038 39.9057 16.4783 39.4166 16.4783C38.8359 16.4783 38.3392 16.3442 37.9265 16.0759C37.5292 15.7927 37.277 15.3828 37.17 14.8462C36.7879 15.3977 36.2607 15.8225 35.5882 16.1206C34.9158 16.4038 34.2204 16.5454 33.5021 16.5454C32.417 16.5454 31.5153 16.2846 30.797 15.7629C30.0787 15.2263 29.7196 14.4735 29.7196 13.5046C29.7196 12.6699 30.0023 11.9842 30.5678 11.4476C31.1332 10.911 31.9356 10.5384 32.9748 10.3297L37.1471 9.52479V9.09998C37.1471 8.26525 36.9178 7.62431 36.4594 7.17713C36.0009 6.71505 35.3513 6.48401 34.5108 6.48401C32.8449 6.48401 31.7675 7.19204 31.2784 8.60809L29.7883 7.71374C30.1093 6.8492 30.6824 6.17099 31.5077 5.6791C32.333 5.1723 33.3493 4.91891 34.5566 4.91891C35.871 4.91891 36.9331 5.24683 37.7431 5.90269C38.5684 6.54364 38.981 7.49015 38.981 8.74224V14.153C38.981 14.6896 39.2714 14.9579 39.8522 14.9579ZM33.7543 14.9803C34.7018 14.9803 35.5042 14.7418 36.1613 14.2648C36.8185 13.7878 37.1471 13.0947 37.1471 12.1855V11.0005L33.823 11.6712C33.0436 11.8352 32.4781 12.0513 32.1266 12.3196C31.7751 12.573 31.5994 12.9382 31.5994 13.4152C31.5994 13.8773 31.7904 14.2574 32.1725 14.5555C32.5546 14.8387 33.0818 14.9803 33.7543 14.9803Z" fill="#B2D530"/>
<path d="M52.6304 0V16.3218H51.0257L50.9111 14.2201C50.6054 14.9505 50.0934 15.5244 49.3751 15.9417C48.6568 16.3442 47.8621 16.5454 46.991 16.5454C46.0282 16.5454 45.1494 16.3144 44.3547 15.8523C43.56 15.3753 42.9257 14.6971 42.4519 13.8177C41.9935 12.9382 41.7642 11.9097 41.7642 10.7322C41.7642 9.5397 42.0087 8.50375 42.4978 7.62431C43.0021 6.74486 43.6593 6.07411 44.4693 5.61203C45.2946 5.14995 46.1963 4.91891 47.1744 4.91891C47.9844 4.91891 48.7103 5.10523 49.3522 5.47787C49.9941 5.83561 50.4755 6.3275 50.7964 6.95354V0H52.6304ZM47.1744 14.9803C48.2748 14.9803 49.1535 14.5853 49.8107 13.7953C50.4679 12.9904 50.7964 11.9172 50.7964 10.5756C50.7964 9.32356 50.4679 8.33233 49.8107 7.60195C49.1688 6.85666 48.3206 6.48401 47.2661 6.48401C46.1199 6.48401 45.2182 6.87156 44.561 7.64666C43.9191 8.40686 43.5982 9.43536 43.5982 10.7322C43.5982 12.029 43.9115 13.0649 44.5381 13.84C45.18 14.6002 46.0587 14.9803 47.1744 14.9803Z" fill="#B2D530"/>
<path d="M62.2805 4.91891C63.2128 4.91891 64.0457 5.14995 64.7793 5.61203C65.5129 6.07411 66.086 6.74486 66.4986 7.62431C66.9265 8.48884 67.1405 9.51734 67.1405 10.7098C67.1405 11.9023 66.9265 12.9382 66.4986 13.8177C66.0707 14.6971 65.4823 15.3753 64.7334 15.8523C63.9998 16.3144 63.1593 16.5454 62.2117 16.5454C61.3865 16.5454 60.6682 16.3516 60.0568 15.9641C59.4455 15.5765 58.9718 15.0548 58.6355 14.399V21.0171H55.4949V5.14249H58.3146L58.4521 7.33364C58.7731 6.58835 59.2698 5.99958 59.9422 5.56731C60.6147 5.13504 61.3941 4.91891 62.2805 4.91891ZM61.2948 14.1978C62.1353 14.1978 62.7925 13.8996 63.2663 13.3034C63.7553 12.7072 63.9998 11.8501 63.9998 10.7322C63.9998 9.61423 63.763 8.75714 63.2892 8.16091C62.8307 7.56468 62.1812 7.26657 61.3406 7.26657C60.5153 7.26657 59.8582 7.57213 59.3691 8.18327C58.8801 8.79441 58.6355 9.64404 58.6355 10.7322C58.6355 11.8054 58.8724 12.655 59.3462 13.281C59.8352 13.8922 60.4848 14.1978 61.2948 14.1978Z" fill="#B2D530"/>
<path d="M79.3598 14.4437C79.6196 14.4437 79.8641 14.4064 80.0933 14.3319L79.9099 16.2324C79.5126 16.4262 79.0159 16.5231 78.4199 16.5231C77.7474 16.5081 77.1667 16.3665 76.6776 16.0982C76.2038 15.8299 75.8829 15.4424 75.7148 14.9356C75.3633 15.4424 74.8513 15.8374 74.1788 16.1206C73.5064 16.4038 72.8034 16.5454 72.0698 16.5454C70.8777 16.5454 69.9455 16.2846 69.273 15.7629C68.6158 15.2412 68.2872 14.4959 68.2872 13.527C68.2872 12.7072 68.5547 12.0364 69.0896 11.5147C69.6398 10.9781 70.4345 10.6055 71.4738 10.3968L75.4168 9.61423V9.18941C75.4168 8.56337 75.2257 8.07148 74.8436 7.71374C74.4769 7.3411 73.9878 7.15477 73.3765 7.15477C72.1233 7.15477 71.3133 7.76591 70.9465 8.98818L68.2643 8.18327C68.5394 7.16968 69.1202 6.37222 70.0066 5.79089C70.893 5.20957 72.0621 4.91891 73.514 4.91891C75.0576 4.91891 76.2802 5.27664 77.1819 5.99212C78.0836 6.69269 78.5345 7.71374 78.5345 9.05526V13.5941C78.5345 14.1605 78.8096 14.4437 79.3598 14.4437ZM72.8721 14.3766C73.6057 14.3766 74.2094 14.2052 74.6832 13.8624C75.1722 13.5195 75.4168 12.968 75.4168 12.2078V11.5147L73.0097 11.9842C72.4442 12.0886 72.0392 12.2302 71.7947 12.4091C71.5502 12.5879 71.4279 12.8637 71.4279 13.2363C71.4279 13.5941 71.5654 13.8773 71.8405 14.086C72.1156 14.2797 72.4595 14.3766 72.8721 14.3766Z" fill="#B2D530"/>
<path d="M86.5573 17.0149C85.9919 18.5204 85.3423 19.5787 84.6087 20.1899C83.8752 20.8159 82.8971 21.1289 81.6744 21.1289C80.5129 21.1289 79.5348 20.8755 78.7401 20.3687L79.4049 18.1552C79.9245 18.5726 80.597 18.7813 81.4222 18.7813C81.8807 18.7813 82.2552 18.6844 82.5455 18.4906C82.8512 18.2968 83.111 17.9466 83.325 17.4398L83.7147 16.4783L82.4538 13.5717L78.9464 5.14249H82.4309L84.6087 11.8501L85.2048 14.086L85.9154 11.7159L88.0016 5.14249H91.1881L86.5573 17.0149Z" fill="#B2D530"/>
</svg>
