<svg width="115" height="23" viewBox="0 0 115 23" fill="none" xmlns="http://www.w3.org/2000/svg">
<path d="M33.7149 17.8877C32.6452 17.8877 31.6695 17.6692 30.7877 17.2322C29.906 16.781 29.2266 16.1607 28.7496 15.3712L30.224 14.3349C30.542 14.9976 31.0118 15.5122 31.6334 15.8787C32.2549 16.2312 32.9922 16.4074 33.845 16.4074C34.5967 16.4074 35.1893 16.2664 35.623 15.9845C36.0711 15.6884 36.2952 15.3077 36.2952 14.8425C36.2952 14.1376 35.8254 13.6864 34.8858 13.489L32.2839 12.9604C31.2575 12.7489 30.5059 12.4035 30.0289 11.9241C29.5663 11.4307 29.335 10.8103 29.335 10.0631C29.335 9.4851 29.5085 8.95641 29.8554 8.47706C30.2023 7.99772 30.6938 7.61706 31.3298 7.33509C31.9658 7.03903 32.6958 6.89099 33.5198 6.89099C34.575 6.89099 35.4712 7.09542 36.2084 7.50427C36.9601 7.91313 37.5166 8.49116 37.878 9.23838L36.4253 10.1689C36.194 9.57674 35.8109 9.13264 35.2761 8.83657C34.7412 8.52641 34.1558 8.37132 33.5198 8.37132C32.7536 8.37132 32.1465 8.52641 31.6984 8.83657C31.2648 9.13264 31.0479 9.52034 31.0479 9.99969C31.0479 10.7469 31.5611 11.2192 32.5874 11.4166L35.2978 11.9664C36.2662 12.1638 36.9601 12.481 37.3793 12.9181C37.8129 13.3551 38.0298 13.912 38.0298 14.5887C38.0298 15.5897 37.6323 16.3933 36.8372 16.9995C36.0422 17.5917 35.0014 17.8877 33.7149 17.8877Z" fill="#0A2133"/>
<path d="M49.2689 16.3863C49.5435 16.3863 49.8109 16.351 50.0711 16.2805L49.9844 17.6128C49.6953 17.7538 49.3195 17.8243 48.8569 17.8243C48.3076 17.8243 47.8378 17.6974 47.4475 17.4436C47.0717 17.1758 46.8332 16.7881 46.732 16.2805C46.3706 16.8022 45.8719 17.204 45.2359 17.4859C44.5999 17.7538 43.9422 17.8877 43.2628 17.8877C42.2364 17.8877 41.3836 17.641 40.7042 17.1476C40.0248 16.64 39.6851 15.9281 39.6851 15.0117C39.6851 14.2222 39.9525 13.5736 40.4874 13.0661C41.0222 12.5585 41.7811 12.2061 42.7641 12.0087L46.7103 11.2474V10.8456C46.7103 10.0561 46.4935 9.44985 46.0598 9.0269C45.6262 8.58985 45.0118 8.37132 44.2168 8.37132C42.6412 8.37132 41.6221 9.041 41.1595 10.3803L39.7502 9.53444C40.0537 8.71674 40.5958 8.07526 41.3764 7.61001C42.1569 7.13067 43.1182 6.89099 44.2602 6.89099C45.5033 6.89099 46.5079 7.20116 47.2741 7.82149C48.0546 8.42772 48.4449 9.32297 48.4449 10.5072V15.6249C48.4449 16.1325 48.7196 16.3863 49.2689 16.3863ZM43.5013 16.4074C44.3975 16.4074 45.1564 16.1818 45.778 15.7307C46.3995 15.2795 46.7103 14.624 46.7103 13.764V12.6431L43.5663 13.2776C42.8291 13.4326 42.2943 13.6371 41.9618 13.8908C41.6293 14.1305 41.4631 14.4759 41.4631 14.9271C41.4631 15.3641 41.6438 15.7236 42.0052 16.0056C42.3665 16.2735 42.8652 16.4074 43.5013 16.4074Z" fill="#0A2133"/>
<path d="M53.4408 14.9905C53.4408 15.5122 53.5347 15.8787 53.7226 16.0902C53.925 16.3017 54.2575 16.4074 54.72 16.4074C55.0091 16.4074 55.2477 16.3933 55.4356 16.3651C55.6235 16.3228 55.8765 16.2382 56.1945 16.1113L55.9126 17.5917C55.4356 17.789 54.9007 17.8877 54.3081 17.8877C53.4263 17.8877 52.7686 17.6551 52.3349 17.1899C51.9157 16.7246 51.7061 16.0127 51.7061 15.054V2.23853H53.4408V14.9905Z" fill="#0A2133"/>
<path d="M66.4431 16.3863C66.7178 16.3863 66.9852 16.351 67.2454 16.2805L67.1586 17.6128C66.8695 17.7538 66.4937 17.8243 66.0311 17.8243C65.4818 17.8243 65.012 17.6974 64.6218 17.4436C64.2459 17.1758 64.0074 16.7881 63.9062 16.2805C63.5449 16.8022 63.0461 17.204 62.4101 17.4859C61.7741 17.7538 61.1164 17.8877 60.437 17.8877C59.4107 17.8877 58.5578 17.641 57.8784 17.1476C57.199 16.64 56.8593 15.9281 56.8593 15.0117C56.8593 14.2222 57.1268 13.5736 57.6616 13.0661C58.1964 12.5585 58.9553 12.2061 59.9383 12.0087L63.8845 11.2474V10.8456C63.8845 10.0561 63.6677 9.44985 63.2341 9.0269C62.8004 8.58985 62.1861 8.37132 61.391 8.37132C59.8154 8.37132 58.7963 9.041 58.3338 10.3803L56.9244 9.53444C57.228 8.71674 57.77 8.07526 58.5506 7.61001C59.3312 7.13067 60.2924 6.89099 61.4344 6.89099C62.6775 6.89099 63.6822 7.20116 64.4483 7.82149C65.2289 8.42772 65.6192 9.32297 65.6192 10.5072V15.6249C65.6192 16.1325 65.8938 16.3863 66.4431 16.3863ZM60.6755 16.4074C61.5717 16.4074 62.3306 16.1818 62.9522 15.7307C63.5738 15.2795 63.8845 14.624 63.8845 13.764V12.6431L60.7406 13.2776C60.0033 13.4326 59.4685 13.6371 59.136 13.8908C58.8036 14.1305 58.6373 14.4759 58.6373 14.9271C58.6373 15.3641 58.818 15.7236 59.1794 16.0056C59.5408 16.2735 60.0395 16.4074 60.6755 16.4074Z" fill="#0A2133"/>
<path d="M78.5292 2.23853V17.6763H77.0114L76.903 15.6884C76.6139 16.3792 76.1296 16.922 75.4502 17.3168C74.7709 17.6974 74.0192 17.8877 73.1952 17.8877C72.2846 17.8877 71.4534 17.6692 70.7017 17.2322C69.9501 16.781 69.3502 16.1395 68.9021 15.3077C68.4684 14.4759 68.2516 13.5031 68.2516 12.3894C68.2516 11.2615 68.4829 10.2817 68.9454 9.44985C69.4224 8.61805 70.044 7.98362 70.8101 7.54657C71.5907 7.10952 72.4436 6.89099 73.3687 6.89099C74.1348 6.89099 74.8214 7.06722 75.4286 7.41968C76.0357 7.75805 76.491 8.22329 76.7946 8.81542V2.23853H78.5292ZM73.3687 16.4074C74.4095 16.4074 75.2406 16.0338 75.8622 15.2866C76.4838 14.5253 76.7946 13.5102 76.7946 12.2413C76.7946 11.0571 76.4838 10.1195 75.8622 9.4287C75.2551 8.72378 74.4528 8.37132 73.4554 8.37132C72.3713 8.37132 71.5184 8.73788 70.8969 9.471C70.2898 10.19 69.9862 11.1628 69.9862 12.3894C69.9862 13.6159 70.2825 14.5958 70.8752 15.3289C71.4823 16.0479 72.3135 16.4074 73.3687 16.4074Z" fill="#0A2133"/>
<path d="M87.6566 6.89099C88.5384 6.89099 89.3262 7.10952 90.02 7.54657C90.7139 7.98362 91.2559 8.61805 91.6462 9.44985C92.051 10.2676 92.2533 11.2403 92.2533 12.3682C92.2533 13.4961 92.051 14.4759 91.6462 15.3077C91.2415 16.1395 90.6849 16.781 89.9766 17.2322C89.2828 17.6692 88.4878 17.8877 87.5915 17.8877C86.811 17.8877 86.1316 17.7045 85.5534 17.3379C84.9752 16.9713 84.5271 16.4779 84.209 15.8576V22.1173H81.2385V7.10247H83.9055L84.0356 9.17493C84.3391 8.47001 84.8089 7.91313 85.445 7.50427C86.081 7.09542 86.8182 6.89099 87.6566 6.89099ZM86.7242 15.6672C87.5193 15.6672 88.1408 15.3853 88.5889 14.8213C89.0515 14.2574 89.2828 13.4467 89.2828 12.3894C89.2828 11.332 89.0587 10.5213 88.6106 9.95739C88.177 9.39346 87.5626 9.11149 86.7676 9.11149C85.987 9.11149 85.3655 9.40051 84.9029 9.97854C84.4403 10.5566 84.209 11.3602 84.209 12.3894C84.209 13.4045 84.4331 14.2081 84.8812 14.8002C85.3438 15.3782 85.9581 15.6672 86.7242 15.6672Z" fill="#0A2133"/>
<path d="M103.811 15.8999C104.056 15.8999 104.288 15.8646 104.505 15.7941L104.331 17.5917C103.955 17.775 103.485 17.8666 102.922 17.8666C102.286 17.8525 101.736 17.7186 101.274 17.4648C100.826 17.211 100.522 16.8445 100.363 16.3651C100.031 16.8445 99.5464 17.2181 98.9104 17.4859C98.2744 17.7538 97.6095 17.8877 96.9156 17.8877C95.7881 17.8877 94.9064 17.641 94.2703 17.1476C93.6488 16.6541 93.338 15.9492 93.338 15.0328C93.338 14.2574 93.5909 13.623 94.0969 13.1295C94.6173 12.622 95.3689 12.2695 96.3519 12.0722L100.081 11.332V10.9302C100.081 10.3381 99.9006 9.8728 99.5392 9.53444C99.1923 9.18198 98.7297 9.00575 98.1515 9.00575C96.9662 9.00575 96.2001 9.58379 95.8532 10.7399L93.3163 9.97854C93.5765 9.01985 94.1258 8.26559 94.9642 7.71575C95.8026 7.16591 96.9084 6.89099 98.2816 6.89099C99.7416 6.89099 100.898 7.22935 101.751 7.90608C102.604 8.5687 103.03 9.53444 103.03 10.8033V15.0963C103.03 15.632 103.29 15.8999 103.811 15.8999ZM97.6745 15.8364C98.3684 15.8364 98.9393 15.6743 99.3874 15.35C99.85 15.0258 100.081 14.5041 100.081 13.7851V13.1295L97.8046 13.5736C97.2698 13.6723 96.8867 13.8063 96.6554 13.9754C96.4241 14.1446 96.3085 14.4054 96.3085 14.7579C96.3085 15.0963 96.4386 15.3641 96.6988 15.5615C96.959 15.7448 97.2842 15.8364 97.6745 15.8364Z" fill="#0A2133"/>
<path d="M110.618 18.3318C110.084 19.7558 109.469 20.7568 108.775 21.3348C108.082 21.9269 107.156 22.223 106 22.223C104.901 22.223 103.976 21.9833 103.225 21.504L103.853 19.4104C104.345 19.8051 104.981 20.0025 105.761 20.0025C106.195 20.0025 106.549 19.9109 106.824 19.7276C107.113 19.5443 107.359 19.213 107.561 18.7336L107.93 17.8243L106.737 15.0751L103.42 7.10247H106.716L108.775 13.4467L109.339 15.5615L110.011 13.3199L111.984 7.10247H114.998L110.618 18.3318Z" fill="#0A2133"/>
<path fill-rule="evenodd" clip-rule="evenodd" d="M9.88904 0L0.00012207 5.74978L9.88904 11.4987V0Z" fill="#1F4F22"/>
<path fill-rule="evenodd" clip-rule="evenodd" d="M0 17.2484L9.88892 22.9974V11.499L0 17.2484Z" fill="#0C2132"/>
<path fill-rule="evenodd" clip-rule="evenodd" d="M9.8894 22.9975L19.7779 17.2486L9.8894 11.4988V22.9975Z" fill="#1F4F22"/>
<path fill-rule="evenodd" clip-rule="evenodd" d="M19.7783 5.74927L9.8894 11.4986L19.7783 17.248V5.74927Z" fill="#B2D530"/>
</svg>
