<svg width="1408" height="373" viewBox="0 0 1408 373" fill="none" xmlns="http://www.w3.org/2000/svg">
<mask id="mask0" mask-type="alpha" maskUnits="userSpaceOnUse" x="0" y="0" width="1408" height="373">
<rect width="1408" height="373" fill="#B2D530"/>
</mask>
<g mask="url(#mask0)">
<path d="M99.5069 185.085C170.209 185.085 199.507 158.692 199.507 122.373C199.507 84.3578 171.662 70.7984 120.572 67.1664C79.652 64.2608 73.5987 63.0501 73.5987 58.6917C73.5987 55.0598 77.4728 51.6699 90.7901 51.6699C105.802 51.6699 115.003 55.3019 117.667 62.3237H197.57C184.98 16.5607 152.05 -0.146396 93.2114 -0.146396C33.1626 -0.146396 -3.15724 23.8247 -3.15724 64.2608C-3.15724 99.1278 22.2666 114.14 74.083 117.772C115.972 120.92 123.236 122.13 123.236 127.457C123.236 131.331 118.635 133.511 106.529 133.511C93.9378 133.511 80.1363 130.847 77.7149 122.615H-7.51562C-1.46232 162.324 24.2037 185.085 99.5069 185.085Z" fill="#1F4F22"/>
<path d="M345.812 121.404H318.935C304.165 121.404 301.26 117.53 301.26 105.665V98.6436H346.054V38.3526H301.26V-1.35706H245.812C245.085 7.60184 244.117 16.0765 241.211 23.3404C238.063 31.3308 233.947 35.2049 226.199 38.3526C220.388 40.774 214.576 41.5004 204.407 42.2268V98.6436H231.041V109.782C231.041 158.935 245.085 180 299.081 180H345.812V121.404Z" fill="#1F4F22"/>
<path d="M549.018 132.058H469.841C467.661 135.206 464.272 137.143 453.86 137.143C439.09 137.143 431.342 132.3 428.92 122.857H549.744V110.266C549.744 69.1034 524.563 35.2049 455.313 35.2049C385.821 35.2049 354.586 67.1664 354.586 113.898C354.586 152.397 375.167 184.601 449.986 184.601C510.761 184.601 540.301 167.167 549.018 132.058ZM452.649 84.1156C465.482 84.1156 472.262 87.0212 474.925 95.738H430.131C433.279 88.2319 440.301 84.1156 452.649 84.1156Z" fill="#1F4F22"/>
<path d="M654.077 127.457C641.244 127.457 634.464 121.646 634.464 110.508C634.464 98.4015 641.244 91.8639 654.077 91.8639C666.426 91.8639 673.932 98.1593 673.932 110.508C673.932 121.646 666.668 127.457 654.077 127.457ZM681.438 181.937C718.484 181.937 749.961 154.334 749.961 110.024C749.961 62.0816 720.905 36.4156 681.922 36.4156C655.288 36.4156 638.338 47.5537 629.379 64.2608L624.295 38.3526H562.067V227.942H635.675V157.724C642.697 172.494 656.256 181.937 681.438 181.937Z" fill="#1F4F22"/>
<path d="M932.858 180H996.781V38.3526H921.478V99.37C921.478 115.109 918.088 120.435 907.434 120.435C896.296 120.435 894.117 115.109 894.117 99.8542V38.3526H820.509V123.099C820.509 162.082 837.458 183.148 874.989 183.148C903.802 183.148 918.572 168.378 924.868 147.312L932.858 180Z" fill="#1F4F22"/>
<path d="M1106.18 127.457C1093.35 127.457 1086.57 121.646 1086.57 110.508C1086.57 98.4015 1093.35 91.8639 1106.18 91.8639C1118.53 91.8639 1126.04 98.1593 1126.04 110.508C1126.04 121.646 1118.77 127.457 1106.18 127.457ZM1133.54 181.937C1170.59 181.937 1202.07 154.334 1202.07 110.024C1202.07 62.0816 1173.01 36.4156 1134.03 36.4156C1107.39 36.4156 1090.44 47.5537 1081.49 64.2608L1076.4 38.3526H1014.17V227.942H1087.78V157.724C1094.8 172.494 1108.36 181.937 1133.54 181.937Z" fill="#1F4F22"/>
<path d="M1224.15 233.511C1274.03 233.511 1297.28 208.087 1297.28 160.387C1297.28 125.278 1287.84 113.656 1257.08 113.656C1226.58 113.656 1215.2 120.92 1215.2 148.523C1215.2 177.821 1223.43 182.421 1249.82 182.421C1251.76 182.421 1253.69 182.421 1255.63 182.179C1252.97 197.434 1243.77 201.55 1224.15 202.276V233.511Z" fill="#1F4F22"/>
<path d="M76.02 313.435C76.02 296.244 79.652 291.159 90.7901 291.159C102.412 291.159 105.318 296.486 105.318 311.741V373H179.895V288.254C179.895 249.27 160.524 228.205 123.478 228.205C94.9063 228.205 79.652 242.491 72.8723 263.314L64.8819 231.353H0.716874V373H76.02V313.435Z" fill="#1F4F22"/>
<path d="M288.018 377.601C349.278 377.601 383.903 349.029 383.903 303.75C383.903 259.44 349.762 228.205 288.502 228.205C227.485 228.205 192.376 259.44 192.376 303.75C192.376 349.271 220.221 377.601 288.018 377.601ZM288.018 320.457C275.669 320.457 268.405 314.646 268.405 303.508C268.405 291.401 275.669 284.864 288.018 284.864C299.883 284.864 307.873 291.159 307.873 303.508C307.873 314.646 300.125 320.457 288.018 320.457Z" fill="#1F4F22"/>
<path d="M532.377 314.404H505.5C490.73 314.404 487.825 310.53 487.825 298.665V291.644H532.619V231.353H487.825V191.643H432.376C431.65 200.602 430.681 209.076 427.776 216.34C424.628 224.331 420.512 228.205 412.764 231.353C406.952 233.774 401.141 234.5 390.972 235.227V291.644H417.606V302.782C417.606 351.935 431.65 373 485.645 373H532.377V314.404Z" fill="#1F4F22"/>
<path d="M696.616 377.601C757.876 377.601 792.501 349.029 792.501 303.75C792.501 259.44 758.36 228.205 697.101 228.205C636.083 228.205 600.974 259.44 600.974 303.75C600.974 349.271 628.819 377.601 696.616 377.601ZM696.616 320.457C684.268 320.457 677.004 314.646 677.004 303.508C677.004 291.401 684.268 284.864 696.616 284.864C708.481 284.864 716.471 291.159 716.471 303.508C716.471 314.646 708.723 320.457 696.616 320.457Z" fill="#1F4F22"/>
<path d="M880.684 313.435C880.684 296.244 884.316 291.159 895.454 291.159C907.077 291.159 909.982 296.486 909.982 311.741V373H984.559V288.254C984.559 249.27 965.188 228.205 928.142 228.205C899.571 228.205 884.316 242.491 877.537 263.314L869.546 231.353H805.381V373H880.684V313.435Z" fill="#1F4F22"/>
<path d="M1044.26 376.39C1075.25 376.39 1085.42 370.337 1085.42 340.796C1085.42 310.53 1074.28 304.719 1044.26 304.719C1013.75 304.719 1003.09 310.53 1003.09 340.796C1003.09 371.063 1011.08 376.39 1044.26 376.39Z" fill="#1F4F22"/>
</g>
</svg>
